<mxfile host="app.diagrams.net" modified="2024-03-15T18:19:23.402Z" agent="Mozilla/5.0 (Windows NT 10.0; Win64; x64) AppleWebKit/537.36 (KHTML, like Gecko) Chrome/122.0.0.0 Safari/537.36" version="24.0.6" etag="G9NMPNtVo0HH8mdECoGH" type="github">
  <diagram name="Page-1" id="BpXTntr0faYGVXR64ka3">
    <mxGraphModel>
      <root>
        <mxCell id="0" />
        <mxCell id="1" parent="0" />
      </root>
    </mxGraphModel>
  </diagram>
</mxfile>
